<svg width="29" height="16" viewBox="0 0 29 16" fill="none" xmlns="http://www.w3.org/2000/svg">
<path d="M0.573122 0.554271C0.955204 0.184756 1.40759 -1.2061e-06 1.93028 -1.18326e-06C2.45296 -1.16041e-06 2.90484 0.184756 3.2859 0.554271L14.4809 11.381L25.7141 0.51732C26.0707 0.17244 26.5165 -1.08559e-07 27.0514 -8.51767e-08C27.5863 -6.17949e-08 28.0448 0.184757 28.4269 0.554272C28.809 0.923786 29 1.36129 29 1.86679C29 2.37228 28.809 2.8093 28.4269 3.17782L15.5507 15.5935C15.3979 15.7413 15.2323 15.8463 15.054 15.9083C14.8757 15.9704 14.6847 16.001 14.4809 16C14.2771 16 14.0861 15.9689 13.9078 15.9069C13.7295 15.8448 13.5639 15.7403 13.4111 15.5935L0.534914 3.14087C0.178305 2.79599 -1.03631e-07 2.3708 -8.15352e-08 1.86531C-5.94393e-08 1.35981 0.19104 0.9228 0.573122 0.554271Z" fill="white"/>
</svg>
