<svg width="37" height="24" viewBox="0 0 37 24" fill="none" xmlns="http://www.w3.org/2000/svg">
<path d="M4.57312 4.55427C4.9552 4.18476 5.40759 4 5.93028 4C6.45296 4 6.90484 4.18476 7.2859 4.55427L18.4809 15.381L29.7141 4.51732C30.0707 4.17244 30.5165 4 31.0514 4C31.5863 4 32.0448 4.18476 32.4269 4.55427C32.809 4.92379 33 5.36129 33 5.86679C33 6.37228 32.809 6.8093 32.4269 7.17782L19.5507 19.5935C19.3979 19.7413 19.2323 19.8463 19.054 19.9083C18.8757 19.9704 18.6847 20.001 18.4809 20C18.2771 20 18.0861 19.9689 17.9078 19.9069C17.7295 19.8448 17.5639 19.7403 17.4111 19.5935L4.53491 7.14087C4.1783 6.79599 4 6.3708 4 5.86531C4 5.35981 4.19104 4.9228 4.57312 4.55427Z" fill="black"/>
</svg>
