<svg width="52" height="53" viewBox="0 0 52 53" fill="none" xmlns="http://www.w3.org/2000/svg">
<rect width="52" height="53" rx="1" fill="white"/>
<rect x="12" y="4.5" width="28" height="28" rx="14" stroke="black"/>
<path d="M20.8523 23.8032C20.6216 23.5791 20.6282 23.1968 20.8523 22.9727L25.071 18.7473L20.8523 14.5286C20.6282 14.3044 20.6282 13.9287 20.8523 13.698C21.0764 13.4607 21.4653 13.4673 21.6895 13.698L25.9082 17.9167L30.127 13.698C30.3511 13.4673 30.7334 13.4673 30.9641 13.698C31.1948 13.9221 31.1882 14.3044 30.9641 14.5286L26.7454 18.7473L30.9641 22.9727C31.1882 23.1968 31.1882 23.5725 30.9641 23.8032C30.74 24.0339 30.3511 24.0273 30.127 23.8032L25.9082 19.5845L21.6895 23.8032C21.4653 24.0273 21.083 24.0273 20.8523 23.8032Z" fill="black"/>
<path d="M14.2471 45.2139C15.126 45.2139 15.6826 44.667 15.7021 43.7783H16.7275C16.7275 45.2041 15.7363 46.1465 14.252 46.1465C12.5723 46.1465 11.5908 45.0381 11.5908 43.1289V41.8252C11.5908 39.916 12.5723 38.8076 14.252 38.8076C15.7754 38.8076 16.708 39.7305 16.7275 41.2783H15.7021C15.6729 40.3555 15.0869 39.7402 14.2422 39.7402C13.1875 39.7402 12.6357 40.458 12.6357 41.8252V43.1289C12.6357 44.4961 13.1875 45.2139 14.2471 45.2139ZM22.3064 46H17.8387V45.209H19.6209V39.3984H17.8777V38.6025H20.5975V45.209H22.3064V46ZM25.8541 46.1025C24.4186 46.1025 23.5055 45.1846 23.5055 43.7441V42.9385C23.5055 41.4932 24.4186 40.5801 25.8541 40.5801C27.2896 40.5801 28.2027 41.4932 28.2027 42.9385V43.7441C28.2027 45.1846 27.2896 46.1025 25.8541 46.1025ZM25.8541 41.4102C25.0045 41.4102 24.4723 42.0205 24.4723 43.0068V43.6758C24.4723 44.6621 25.0045 45.2725 25.8541 45.2725C26.7037 45.2725 27.2359 44.6621 27.2359 43.6758V43.0068C27.2359 42.0205 26.7037 41.4102 25.8541 41.4102ZM29.7338 42.1475C29.7338 41.1953 30.5297 40.5703 31.7504 40.5703C32.9125 40.5703 33.6742 41.127 33.7621 42.0498H32.8246C32.7367 41.6152 32.3217 41.3467 31.7357 41.3467C31.1107 41.3467 30.7055 41.6396 30.7055 42.0791C30.7055 42.46 30.9643 42.6699 31.5844 42.8066L32.3559 42.9775C33.4057 43.2119 33.8793 43.6611 33.8793 44.4424C33.8793 45.4531 33.0443 46.0977 31.7455 46.0977C30.4906 46.0977 29.6801 45.5361 29.5922 44.5986H30.5785C30.6859 45.0527 31.1254 45.3115 31.7699 45.3115C32.4389 45.3115 32.8686 45.0137 32.8686 44.5498C32.8686 44.1592 32.6293 43.959 31.9848 43.8125L31.1889 43.6318C30.2172 43.4121 29.7338 42.9238 29.7338 42.1475ZM38.9699 44.5938H39.9074C39.7658 45.4873 38.8869 46.1025 37.7395 46.1025C36.2453 46.1025 35.3908 45.2236 35.3908 43.71V42.8994C35.3908 41.498 36.3039 40.5752 37.6857 40.5752C39.0773 40.5752 39.9221 41.4932 39.9221 43.0068V43.583H36.3527V43.8223C36.3527 44.7207 36.8947 45.2969 37.7346 45.2969C38.3645 45.2969 38.8381 45.0283 38.9699 44.5938ZM37.676 41.376C36.8508 41.376 36.3527 41.9424 36.3527 42.8945H38.9602C38.9602 41.9473 38.4816 41.376 37.676 41.376Z" fill="black"/>
</svg>
