<svg width="48" height="50" viewBox="0 0 48 50" fill="none" xmlns="http://www.w3.org/2000/svg">
<path d="M0.140625 25.8984C0.140625 10.4766 9.63281 0.234375 24 0.234375C38.3438 0.234375 47.8594 10.4766 47.8594 25.8984C47.8594 32.9531 45.7969 40.7344 42.3516 46.7812C41.8359 47.7188 40.8516 48.0234 39.8672 47.625C38.8125 49.3125 36.9141 49.9922 34.7109 49.3594C32.0156 48.5859 30.75 46.2656 31.5469 43.5469L34.8984 32.1094C35.6953 29.4375 37.9688 28.1719 40.6875 28.9453C41.9766 29.3203 42.9375 30.0469 43.5 31.0078C43.7578 29.2734 43.875 27.5625 43.875 25.8984C43.875 12.8906 35.9062 4.21875 24 4.21875C12.0703 4.21875 4.125 12.8906 4.125 25.8984C4.125 27.5625 4.24219 29.2734 4.47656 30.9844C5.0625 30.0469 6 29.3203 7.28906 28.9453C10.0078 28.1719 12.3047 29.4375 13.0781 32.1094L16.4297 43.5469C17.2266 46.2422 15.9609 48.5859 13.2656 49.3594C11.0625 49.9922 9.16406 49.3125 8.10938 47.625C7.125 48.0234 6.16406 47.7188 5.625 46.7812C2.17969 40.7344 0.140625 32.9531 0.140625 25.8984Z" fill="black"/>
</svg>
