<svg width="41" height="42" viewBox="0 0 41 42" fill="none" xmlns="http://www.w3.org/2000/svg">
<path d="M0.980469 21.582C0.980469 8.73047 8.89062 0.195312 20.8633 0.195312C32.8164 0.195312 40.7461 8.73047 40.7461 21.582C40.7461 27.4609 39.0273 33.9453 36.1562 38.9844C35.7266 39.7656 34.9062 40.0195 34.0859 39.6875C33.207 41.0938 31.625 41.6602 29.7891 41.1328C27.543 40.4883 26.4883 38.5547 27.1523 36.2891L29.9453 26.7578C30.6094 24.5312 32.5039 23.4766 34.7695 24.1211C35.8438 24.4336 36.6445 25.0391 37.1133 25.8398C37.3281 24.3945 37.4258 22.9688 37.4258 21.582C37.4258 10.7422 30.7852 3.51562 20.8633 3.51562C10.9219 3.51562 4.30078 10.7422 4.30078 21.582C4.30078 22.9688 4.39844 24.3945 4.59375 25.8203C5.08203 25.0391 5.86328 24.4336 6.9375 24.1211C9.20312 23.4766 11.1172 24.5312 11.7617 26.7578L14.5547 36.2891C15.2188 38.5352 14.1641 40.4883 11.918 41.1328C10.082 41.6602 8.5 41.0938 7.62109 39.6875C6.80078 40.0195 6 39.7656 5.55078 38.9844C2.67969 33.9453 0.980469 27.4609 0.980469 21.582Z" fill="white"/>
</svg>
