<svg width="52" height="53" viewBox="0 0 52 53" fill="none" xmlns="http://www.w3.org/2000/svg">
<rect width="52" height="53" rx="1" fill="white"/>
<rect x="11.5" y="4" width="29" height="29" rx="14.5" fill="black"/>
<path d="M17.8379 17.5596C17.8379 17.4023 17.9062 17.2383 18.0566 17.1152L25.1797 11.1338C25.6924 10.7031 26.3213 10.7031 26.8271 11.1338L30.3135 14.0596V12.7676C30.3135 12.4668 30.5117 12.2754 30.8057 12.2754H31.5371C31.8379 12.2754 32.0293 12.4668 32.0293 12.7676V15.502L33.9434 17.1152C34.0869 17.2383 34.1553 17.375 34.1553 17.5801C34.1553 17.9082 33.8955 18.1064 33.5742 18.1064C33.3828 18.1064 33.2256 18.0039 33.0889 17.8877L26.2461 12.1455C26.0957 12.0088 25.9111 12.0088 25.7607 12.1455L18.918 17.8877C18.7744 18.0039 18.6172 18.1064 18.4258 18.1064C18.0566 18.1064 17.8379 17.8398 17.8379 17.5596ZM19.9707 23.6572V18.2432L25.5898 13.5332C25.8428 13.3213 26.1504 13.3145 26.4102 13.5332L32.0293 18.2432V23.6572C32.0293 24.6074 31.4619 25.168 30.498 25.168H21.5088C20.5449 25.168 19.9707 24.6074 19.9707 23.6572ZM27.7568 18.7354C28.0713 18.6602 28.1738 18.5918 28.1738 18.2021V16.9033C28.1738 16.6504 28.085 16.5342 27.7295 16.623L25.7949 17.1016C25.4668 17.1836 25.3916 17.252 25.3916 17.6416V20.6426C25.3916 20.9365 25.3643 20.998 25.0293 21.0869L24.4209 21.2441C23.8125 21.4014 23.3135 21.7637 23.3135 22.4062C23.3135 22.9736 23.7373 23.3838 24.4072 23.3838C25.3506 23.3838 25.9932 22.7002 25.9932 21.7432V19.4531C25.9932 19.207 26.0479 19.1523 26.1982 19.1182L27.7568 18.7354Z" fill="white"/>
<path d="M19.5127 45.082V46H15.2402V38.9541H16.2461V45.082H19.5127ZM23.0604 39.4326C22.6258 39.4326 22.3035 39.1299 22.3035 38.71C22.3035 38.2852 22.6258 37.9824 23.0604 37.9824C23.4998 37.9824 23.8172 38.2852 23.8172 38.71C23.8172 39.1299 23.4998 39.4326 23.0604 39.4326ZM25.3064 46H20.8387V45.209H22.6307V41.4688H20.8777V40.6777H23.5877V45.209H25.3064V46ZM26.8521 42.1475C26.8521 41.1953 27.648 40.5703 28.8687 40.5703C30.0309 40.5703 30.7926 41.127 30.8805 42.0498H29.943C29.8551 41.6152 29.44 41.3467 28.8541 41.3467C28.2291 41.3467 27.8238 41.6396 27.8238 42.0791C27.8238 42.46 28.0826 42.6699 28.7027 42.8066L29.4742 42.9775C30.524 43.2119 30.9977 43.6611 30.9977 44.4424C30.9977 45.4531 30.1627 46.0977 28.8639 46.0977C27.609 46.0977 26.7984 45.5361 26.7105 44.5986H27.6969C27.8043 45.0527 28.2437 45.3115 28.8883 45.3115C29.5572 45.3115 29.9869 45.0137 29.9869 44.5498C29.9869 44.1592 29.7477 43.959 29.1031 43.8125L28.3072 43.6318C27.3355 43.4121 26.8521 42.9238 26.8521 42.1475ZM33.7689 39.2227H34.7357V40.707H36.8402V41.5127H34.7504V44.3887C34.7504 44.916 35.1166 45.2041 35.7953 45.2041C36.0443 45.2041 36.6938 45.1943 36.8109 45.1797V45.9805C36.7035 46 35.932 46.0195 35.727 46.0195C34.3646 46.0195 33.7689 45.5312 33.7689 44.3887V41.5127H32.3627V40.707H33.7689V39.2227Z" fill="black"/>
</svg>
