<svg width="52" height="53" viewBox="0 0 52 53" fill="none" xmlns="http://www.w3.org/2000/svg">
<rect width="52" height="53" rx="1" fill="white"/>
<rect x="11.5" y="4" width="29" height="29" rx="14.5" fill="black"/>
<path d="M19.5598 17.5015C19.5598 14.6011 21.9197 12.2412 24.8201 12.2412C27.7205 12.2412 30.0803 14.6011 30.0803 17.5015C30.0803 18.7012 29.6782 19.802 28.9993 20.6853L32.2227 23.9285C32.3611 24.0669 32.4402 24.2581 32.4402 24.469C32.4402 24.9106 32.1304 25.2468 31.6821 25.2468C31.4712 25.2468 31.2734 25.1743 31.1218 25.0227L27.8787 21.7729C27.0151 22.3926 25.967 22.7617 24.8201 22.7617C21.9197 22.7617 19.5598 20.4019 19.5598 17.5015ZM20.687 17.5015C20.687 19.7822 22.5393 21.6345 24.8201 21.6345C27.1008 21.6345 28.9531 19.7822 28.9531 17.5015C28.9531 15.2207 27.1008 13.3684 24.8201 13.3684C22.5393 13.3684 20.687 15.2207 20.687 17.5015ZM22.6448 17.5015C22.6448 17.2312 22.8557 17.0137 23.126 17.0137H24.3389V15.8074C24.3389 15.5371 24.5498 15.3262 24.8201 15.3262C25.0903 15.3262 25.3079 15.5371 25.3079 15.8074V17.0137H26.5142C26.7844 17.0137 26.9954 17.2312 26.9954 17.5015C26.9954 17.7717 26.7844 17.9827 26.5142 17.9827H25.3079V19.1956C25.3079 19.4658 25.0903 19.6768 24.8201 19.6768C24.5498 19.6768 24.3389 19.4658 24.3389 19.1956V17.9827H23.126C22.8557 17.9827 22.6448 17.7717 22.6448 17.5015Z" fill="white"/>
<path d="M19.0342 46H15.1475V45.1162H16.583V39.8379H15.1475V38.9541H19.0342V39.8379H17.5986V45.1162H19.0342V46ZM20.7361 46V40.6777H21.6834V41.6055H21.7518C22.0301 40.9463 22.6307 40.5752 23.4266 40.5752C24.5838 40.5752 25.2088 41.2686 25.2088 42.5479V46H24.2273V42.792C24.2273 41.8789 23.8611 41.4492 23.075 41.4492C22.2596 41.4492 21.7127 42.0205 21.7127 42.8799V46H20.7361ZM28.0338 46V41.5127H26.608V40.707H28.0338V40.209C28.0338 39.1348 28.649 38.6611 29.9967 38.6611C30.2506 38.6611 31.1393 38.6807 31.2857 38.7051V39.4619C31.0904 39.4424 30.2604 39.4229 30.0162 39.4229C29.3473 39.4229 28.9957 39.6816 28.9957 40.1748V40.707H31.2857V41.5127H29.0104V46H28.0338ZM34.7357 46.1025C33.3002 46.1025 32.3871 45.1846 32.3871 43.7441V42.9385C32.3871 41.4932 33.3002 40.5801 34.7357 40.5801C36.1713 40.5801 37.0844 41.4932 37.0844 42.9385V43.7441C37.0844 45.1846 36.1713 46.1025 34.7357 46.1025ZM34.7357 41.4102C33.8861 41.4102 33.3539 42.0205 33.3539 43.0068V43.6758C33.3539 44.6621 33.8861 45.2725 34.7357 45.2725C35.5854 45.2725 36.1176 44.6621 36.1176 43.6758V43.0068C36.1176 42.0205 35.5854 41.4102 34.7357 41.4102Z" fill="black"/>
</svg>
