<svg width="142" height="36" viewBox="0 0 142 36" fill="none" xmlns="http://www.w3.org/2000/svg">
<path d="M3.48828 18.4961C3.48828 10.9141 8.12891 5.89844 15.1836 5.89844C22.2266 5.89844 26.8789 10.9141 26.8789 18.4961C26.8789 21.9883 25.8594 25.832 24.1484 28.8203C23.9727 29.1484 23.6328 29.2656 23.293 29.1602C22.8008 29.9102 21.957 30.1914 20.9727 29.9102C19.7539 29.5469 19.2031 28.5156 19.5664 27.2852L21.3008 21.5781C21.6641 20.3711 22.6719 19.8203 23.9141 20.1836C24.4883 20.3594 24.9102 20.6758 25.168 21.0977C25.2969 20.2188 25.3555 19.3516 25.3555 18.4961C25.3555 11.8633 21.2773 7.42188 15.1836 7.42188C9.07812 7.42188 5.01172 11.8633 5.01172 18.4961C5.01172 19.3516 5.07031 20.2188 5.19922 21.0859C5.44531 20.6758 5.86719 20.3594 6.44141 20.1836C7.68359 19.8203 8.69141 20.3711 9.05469 21.5781L10.7891 27.2852C11.1523 28.5039 10.6016 29.5469 9.38281 29.9102C8.39844 30.1914 7.55469 29.9102 7.0625 29.1602C6.72266 29.2656 6.38281 29.1484 6.20703 28.8203C4.49609 25.832 3.48828 21.9883 3.48828 18.4961Z" fill="white"/>
<path d="M40.6235 14.271C38.4409 14.271 37.1152 12.9746 37.0566 10.9897V10.9312H39.2026V10.9751C39.2466 11.7881 39.73 12.3594 40.5942 12.3594C41.5317 12.3594 42.0225 11.7954 42.0225 10.7334V3.43115H44.2344V10.748C44.2344 12.9746 42.9087 14.271 40.6235 14.271ZM46.4552 14V3.43115H48.6671V14H46.4552ZM50.8806 14V3.43115H52.7263L57.6042 10.1621H57.7214V3.43115H59.8381V14H58.007L53.1145 7.23975H52.9973V14H50.8806ZM62.0589 14V3.43115H66.6805C68.7313 3.43115 69.9544 4.43457 69.9544 6.06055V6.0752C69.9544 7.18848 69.1268 8.1626 68.0428 8.32373V8.45557C69.4417 8.56543 70.4598 9.61279 70.4598 10.9678V10.9824C70.4598 12.8354 69.0608 14 66.805 14H62.0589ZM66.1165 5.07178H64.2708V7.82568H65.9334C67.1272 7.82568 67.7791 7.32764 67.7791 6.45605V6.44141C67.7791 5.58447 67.1712 5.07178 66.1165 5.07178ZM66.1897 9.2832H64.2708V12.3521H66.241C67.5154 12.3521 68.2039 11.8101 68.2039 10.8066V10.792C68.2039 9.81055 67.4935 9.2832 66.1897 9.2832ZM76.7309 14.271C73.5888 14.271 71.6405 12.1323 71.6405 8.71924V8.70459C71.6405 5.28418 73.6181 3.16016 76.7309 3.16016C79.8437 3.16016 81.8139 5.2915 81.8139 8.70459V8.71924C81.8139 12.1323 79.851 14.271 76.7309 14.271ZM76.7309 12.396C78.452 12.396 79.558 10.9531 79.558 8.71924V8.70459C79.558 6.46338 78.4447 5.03516 76.7309 5.03516C75.0097 5.03516 73.8964 6.46338 73.8964 8.70459V8.71924C73.8964 10.9531 74.9877 12.396 76.7309 12.396ZM84.8592 3.575H86.6742L85.0242 8.12H84.2292L84.8592 3.575ZM91.4023 14.1685C89.2124 14.1685 87.9673 13.187 87.8135 11.8027L87.8062 11.7734H89.9082L89.9229 11.8027C90.0913 12.3008 90.582 12.6597 91.4243 12.6597C92.2446 12.6597 92.8013 12.3081 92.8013 11.7734V11.7588C92.8013 11.3267 92.479 11.0557 91.6587 10.8726L90.311 10.5869C88.7729 10.2573 88.0112 9.50293 88.0112 8.29443V8.28711C88.0112 6.771 89.3589 5.76025 91.373 5.76025C93.4897 5.76025 94.6616 6.81494 94.7495 8.11133V8.14062H92.7646L92.7573 8.104C92.6401 7.67188 92.1641 7.26904 91.3657 7.26904C90.626 7.26904 90.0986 7.61328 90.0986 8.15527V8.1626C90.0986 8.59473 90.3989 8.84375 91.2339 9.02686L92.5742 9.3125C94.1855 9.65674 94.9399 10.3306 94.9399 11.5244V11.5317C94.9399 13.1284 93.4678 14.1685 91.4023 14.1685ZM100.07 14V3.43115H104.692C106.742 3.43115 107.966 4.43457 107.966 6.06055V6.0752C107.966 7.18848 107.138 8.1626 106.054 8.32373V8.45557C107.453 8.56543 108.471 9.61279 108.471 10.9678V10.9824C108.471 12.8354 107.072 14 104.816 14H100.07ZM104.128 5.07178H102.282V7.82568H103.945C105.138 7.82568 105.79 7.32764 105.79 6.45605V6.44141C105.79 5.58447 105.182 5.07178 104.128 5.07178ZM104.201 9.2832H102.282V12.3521H104.252C105.527 12.3521 106.215 11.8101 106.215 10.8066V10.792C106.215 9.81055 105.505 9.2832 104.201 9.2832ZM110.12 14V3.43115H117.122V5.25488H112.332V7.80371H116.851V9.50293H112.332V12.1763H117.122V14H110.12ZM118.347 14L122.017 3.43115H124.617L128.293 14H125.964L125.181 11.4365H121.453L120.669 14H118.347ZM123.254 5.54053L121.958 9.78125H124.675L123.386 5.54053H123.254ZM131.159 14V5.25488H127.987V3.43115H136.542V5.25488H133.371V14H131.159ZM37.7817 32V21.4312H44.7031V23.2549H39.9937V26.0894H44.293V27.8398H39.9937V32H37.7817ZM46.3966 32V21.4312H48.6085V30.1763H53.3106V32H46.3966ZM54.9675 32V21.4312H61.9694V23.2549H57.1794V25.8037H61.6984V27.5029H57.1794V30.1763H61.9694V32H54.9675ZM63.1941 32L66.8636 21.4312H69.4637L73.1404 32H70.8113L70.0276 29.4365H66.2996L65.5159 32H63.1941ZM68.1014 23.5405L66.805 27.7812H69.5223L68.2332 23.5405H68.1014ZM78.1021 32V21.4312H80.6362L83.5586 29.1655H83.6904L86.6055 21.4312H89.1396V32H87.1694V24.8076H87.0229L84.313 32H82.9287L80.2188 24.8076H80.0723V32H78.1021ZM90.6061 32L94.2755 21.4312H96.8756L100.552 32H98.2232L97.4396 29.4365H93.7115L92.9278 32H90.6061ZM95.5133 23.5405L94.2169 27.7812H96.9342L95.6451 23.5405H95.5133ZM101.997 32V21.4312H106.399C108.801 21.4312 110.178 22.7129 110.178 24.793V24.8076C110.178 26.1626 109.475 27.3271 108.266 27.8032L110.493 32H107.988L106.018 28.1328H104.209V32H101.997ZM104.209 26.5215H106.157C107.263 26.5215 107.915 25.8916 107.915 24.8516V24.8369C107.915 23.8188 107.234 23.1597 106.128 23.1597H104.209V26.5215ZM112.062 32V21.4312H114.274V26.1772H114.406L118.309 21.4312H120.77L116.918 26.0601L121.041 32H118.39L115.321 27.5103L114.274 28.77V32H112.062ZM122.361 32V21.4312H129.363V23.2549H124.573V25.8037H129.092V27.5029H124.573V30.1763H129.363V32H122.361ZM133.906 32V23.2549H130.734V21.4312H139.289V23.2549H136.118V32H133.906Z" fill="white"/>
</svg>
