<svg width="103" height="29" viewBox="0 0 103 29" fill="none" xmlns="http://www.w3.org/2000/svg">
<path d="M4.12354 11.271C1.94092 11.271 0.615234 9.97461 0.556641 7.98975V7.93115H2.70264V7.9751C2.74658 8.78809 3.22998 9.35938 4.09424 9.35938C5.03174 9.35938 5.52246 8.79541 5.52246 7.7334V0.431152H7.73438V7.74805C7.73438 9.97461 6.40869 11.271 4.12354 11.271ZM9.95518 11V0.431152H12.1671V11H9.95518ZM14.3806 11V0.431152H16.2263L21.1042 7.16211H21.2214V0.431152H23.3381V11H21.507L16.6145 4.23975H16.4973V11H14.3806ZM25.5589 11V0.431152H30.1805C32.2313 0.431152 33.4544 1.43457 33.4544 3.06055V3.0752C33.4544 4.18848 32.6268 5.1626 31.5428 5.32373V5.45557C32.9417 5.56543 33.9598 6.61279 33.9598 7.96777V7.98242C33.9598 9.83545 32.5608 11 30.305 11H25.5589ZM29.6165 2.07178H27.7708V4.82568H29.4334C30.6272 4.82568 31.2791 4.32764 31.2791 3.45605V3.44141C31.2791 2.58447 30.6712 2.07178 29.6165 2.07178ZM29.6897 6.2832H27.7708V9.35205H29.741C31.0154 9.35205 31.7039 8.81006 31.7039 7.80664V7.79199C31.7039 6.81055 30.9935 6.2832 29.6897 6.2832ZM40.2309 11.271C37.0888 11.271 35.1405 9.13232 35.1405 5.71924V5.70459C35.1405 2.28418 37.1181 0.160156 40.2309 0.160156C43.3437 0.160156 45.3139 2.2915 45.3139 5.70459V5.71924C45.3139 9.13232 43.351 11.271 40.2309 11.271ZM40.2309 9.396C41.952 9.396 43.058 7.95312 43.058 5.71924V5.70459C43.058 3.46338 41.9447 2.03516 40.2309 2.03516C38.5097 2.03516 37.3964 3.46338 37.3964 5.70459V5.71924C37.3964 7.95312 38.4877 9.396 40.2309 9.396ZM48.3592 0.574999H50.1742L48.5242 5.12H47.7292L48.3592 0.574999ZM54.9023 11.1685C52.7124 11.1685 51.4673 10.187 51.3135 8.80273L51.3062 8.77344H53.4082L53.4229 8.80273C53.5913 9.30078 54.082 9.65967 54.9243 9.65967C55.7446 9.65967 56.3013 9.30811 56.3013 8.77344V8.75879C56.3013 8.32666 55.979 8.05566 55.1587 7.87256L53.811 7.58691C52.2729 7.25732 51.5112 6.50293 51.5112 5.29443V5.28711C51.5112 3.771 52.8589 2.76025 54.873 2.76025C56.9897 2.76025 58.1616 3.81494 58.2495 5.11133V5.14062H56.2646L56.2573 5.104C56.1401 4.67188 55.6641 4.26904 54.8657 4.26904C54.126 4.26904 53.5986 4.61328 53.5986 5.15527V5.1626C53.5986 5.59473 53.8989 5.84375 54.7339 6.02686L56.0742 6.3125C57.6855 6.65674 58.4399 7.33057 58.4399 8.52441V8.53174C58.4399 10.1284 56.9678 11.1685 54.9023 11.1685ZM63.57 11V0.431152H68.1916C70.2424 0.431152 71.4655 1.43457 71.4655 3.06055V3.0752C71.4655 4.18848 70.6379 5.1626 69.5539 5.32373V5.45557C70.9528 5.56543 71.9709 6.61279 71.9709 7.96777V7.98242C71.9709 9.83545 70.572 11 68.3161 11H63.57ZM67.6276 2.07178H65.7819V4.82568H67.4445C68.6384 4.82568 69.2902 4.32764 69.2902 3.45605V3.44141C69.2902 2.58447 68.6823 2.07178 67.6276 2.07178ZM67.7009 6.2832H65.7819V9.35205H67.7521C69.0266 9.35205 69.715 8.81006 69.715 7.80664V7.79199C69.715 6.81055 69.0046 6.2832 67.7009 6.2832ZM73.6204 11V0.431152H80.6224V2.25488H75.8323V4.80371H80.3514V6.50293H75.8323V9.17627H80.6224V11H73.6204ZM81.8471 11L85.5165 0.431152H88.1166L91.7934 11H89.4643L88.6806 8.43652H84.9525L84.1688 11H81.8471ZM86.7543 2.54053L85.4579 6.78125H88.1752L86.8861 2.54053H86.7543ZM94.6587 11V2.25488H91.4873V0.431152H100.042V2.25488H96.8706V11H94.6587ZM1.28174 29V18.4312H8.20312V20.2549H3.49365V23.0894H7.79297V24.8398H3.49365V29H1.28174ZM9.89658 29V18.4312H12.1085V27.1763H16.8106V29H9.89658ZM18.4675 29V18.4312H25.4694V20.2549H20.6794V22.8037H25.1984V24.5029H20.6794V27.1763H25.4694V29H18.4675ZM26.6941 29L30.3636 18.4312H32.9637L36.6404 29H34.3113L33.5276 26.4365H29.7996L29.0159 29H26.6941ZM31.6014 20.5405L30.305 24.7812H33.0223L31.7332 20.5405H31.6014ZM41.6021 29V18.4312H44.1362L47.0586 26.1655H47.1904L50.1055 18.4312H52.6396V29H50.6694V21.8076H50.5229L47.813 29H46.4287L43.7188 21.8076H43.5723V29H41.6021ZM54.1061 29L57.7755 18.4312H60.3756L64.0523 29H61.7232L60.9396 26.4365H57.2115L56.4278 29H54.1061ZM59.0133 20.5405L57.7169 24.7812H60.4342L59.1451 20.5405H59.0133ZM65.4968 29V18.4312H69.8986C72.301 18.4312 73.6779 19.7129 73.6779 21.793V21.8076C73.6779 23.1626 72.9748 24.3271 71.7663 24.8032L73.9929 29H71.488L69.5178 25.1328H67.7087V29H65.4968ZM67.7087 23.5215H69.6569C70.7629 23.5215 71.4147 22.8916 71.4147 21.8516V21.8369C71.4147 20.8188 70.7336 20.1597 69.6276 20.1597H67.7087V23.5215ZM75.5618 29V18.4312H77.7737V23.1772H77.9056L81.8094 18.4312H84.2703L80.4178 23.0601L84.5413 29H81.8899L78.8211 24.5103L77.7737 25.77V29H75.5618ZM85.8612 29V18.4312H92.8632V20.2549H88.0731V22.8037H92.5922V24.5029H88.0731V27.1763H92.8632V29H85.8612ZM97.4058 29V20.2549H94.2344V18.4312H102.789V20.2549H99.6177V29H97.4058Z" fill="white"/>
</svg>
