<svg width="41" height="40" viewBox="0 0 41 40" fill="none" xmlns="http://www.w3.org/2000/svg">
<path d="M40.8047 9.625C40.8047 10.2695 40.3945 10.7773 39.7305 10.9141L30.8047 12.8672C29.8867 13.0625 29.6914 13.2773 29.6914 14.3125V32.1836C29.6914 37.8672 25.3945 39.9766 22.5234 39.9766C19.2812 39.9766 16.9766 37.8867 16.9766 34.8984C16.9766 31.9492 18.8125 29.957 22.7188 29.1367L25.8242 28.4922C26.6836 28.3164 27.1328 27.6914 27.0352 26.7344L26.9961 5.01562C26.9961 3.92188 27.6797 3.23828 28.9297 2.96484L38.9688 0.777344C39.9648 0.582031 40.8047 1.24609 40.8047 2.28125V9.625ZM2.30859 10.543C1.56641 10.543 0.980469 9.9375 0.980469 9.21484C0.980469 8.49219 1.56641 7.90625 2.30859 7.90625H19.7695C20.4922 7.90625 21.0977 8.49219 21.0977 9.21484C21.0977 9.9375 20.4922 10.543 19.7695 10.543H2.30859ZM2.30859 17.4961C1.54688 17.4961 0.980469 16.8906 0.980469 16.1484C0.980469 15.4258 1.56641 14.8594 2.30859 14.8594H19.7695C20.4922 14.8594 21.0977 15.4258 21.0977 16.1484C21.0977 16.8906 20.5117 17.4961 19.7695 17.4961H2.30859ZM2.30859 24.4492C1.54688 24.4492 0.980469 23.8633 0.980469 23.1211C0.980469 22.3984 1.56641 21.8125 2.30859 21.8125H19.7695C20.4922 21.8125 21.0977 22.3984 21.0977 23.1211C21.0977 23.8633 20.5117 24.4492 19.7695 24.4492H2.30859Z" fill="white"/>
</svg>
