<svg width="48" height="42" viewBox="0 0 48 42" fill="none" xmlns="http://www.w3.org/2000/svg">
<path d="M0.480469 20.0273C0.480469 19.5781 0.675781 19.1094 1.10547 18.7578L21.457 1.66797C22.9219 0.4375 24.7188 0.4375 26.1641 1.66797L36.125 10.0273V6.33594C36.125 5.47656 36.6914 4.92969 37.5312 4.92969H39.6211C40.4805 4.92969 41.0273 5.47656 41.0273 6.33594V14.1484L46.4961 18.7578C46.9062 19.1094 47.1016 19.5 47.1016 20.0859C47.1016 21.0234 46.3594 21.5898 45.4414 21.5898C44.8945 21.5898 44.4453 21.2969 44.0547 20.9648L24.5039 4.55859C24.0742 4.16797 23.5469 4.16797 23.1172 4.55859L3.56641 20.9648C3.15625 21.2969 2.70703 21.5898 2.16016 21.5898C1.10547 21.5898 0.480469 20.8281 0.480469 20.0273ZM6.57422 37.4492V21.9805L22.6289 8.52344C23.3516 7.91797 24.2305 7.89844 24.9727 8.52344L41.0273 21.9805V37.4492C41.0273 40.1641 39.4062 41.7656 36.6523 41.7656H10.9688C8.21484 41.7656 6.57422 40.1641 6.57422 37.4492ZM28.8203 23.3867C29.7188 23.1719 30.0117 22.9766 30.0117 21.8633V18.1523C30.0117 17.4297 29.7578 17.0977 28.7422 17.3516L23.2148 18.7188C22.2773 18.9531 22.0625 19.1484 22.0625 20.2617V28.8359C22.0625 29.6758 21.9844 29.8516 21.0273 30.1055L19.2891 30.5547C17.5508 31.0039 16.125 32.0391 16.125 33.875C16.125 35.4961 17.3359 36.668 19.25 36.668C21.9453 36.668 23.7812 34.7148 23.7812 31.9805V25.4375C23.7812 24.7344 23.9375 24.5781 24.3672 24.4805L28.8203 23.3867Z" fill="black"/>
</svg>
