<svg width="50" height="40" viewBox="0 0 50 40" fill="none" xmlns="http://www.w3.org/2000/svg">
<path d="M6 32.4727C2.69922 32.4727 0.980469 30.7734 0.980469 27.4531V5.07031C0.980469 1.76953 2.69922 0.0703125 6 0.0703125H44.7891C48.0898 0.0703125 49.8086 1.76953 49.8086 5.07031V27.4531C49.8086 30.7734 48.0898 32.4727 44.7891 32.4727H6ZM6.05859 29.3281H44.7305C46.0195 29.3281 46.6641 28.6836 46.6641 27.4141V5.12891C46.6641 3.83984 46.0195 3.21484 44.7305 3.21484H6.05859C4.76953 3.21484 4.125 3.83984 4.125 5.12891V27.4141C4.125 28.6836 4.76953 29.3281 6.05859 29.3281ZM31.293 12.707L26.7031 13.8203C26.2734 13.8984 26.0977 14.0938 26.0977 14.8164V21.5352C26.0977 24.3672 24.2031 26.3594 21.4102 26.3594C19.457 26.3594 18.207 25.1484 18.207 23.4883C18.207 21.5742 19.6914 20.5195 21.4688 20.0703L23.2656 19.582C24.2422 19.3281 24.3203 19.1523 24.3203 18.293V9.48438C24.3203 8.33203 24.5352 8.13672 25.4922 7.90234L31.2148 6.47656C32.25 6.22266 32.5039 6.55469 32.5039 7.29688V11.1445C32.5039 12.2773 32.2305 12.4727 31.293 12.707ZM15.5703 39.0938C14.7109 39.0938 13.9883 38.3906 13.9883 37.5117C13.9883 36.6328 14.7109 35.9297 15.5703 35.9297H35.2188C36.0781 35.9297 36.8008 36.6328 36.8008 37.5117C36.8008 38.3906 36.0781 39.0938 35.2188 39.0938H15.5703Z" fill="black"/>
</svg>
