<svg width="29" height="29" viewBox="0 0 29 29" fill="none" xmlns="http://www.w3.org/2000/svg">
<rect x="0.25" y="0.25" width="28.5" height="28.5" rx="1.25" fill="white"/>
<rect x="0.25" y="0.25" width="28.5" height="28.5" rx="1.25" stroke="black" stroke-width="0.5"/>
<path d="M21.2104 14.7046C21.2104 14.9243 21.1152 15.1367 20.9468 15.2979L16.1128 20.1245C15.937 20.293 15.7466 20.3735 15.5415 20.3735C15.0874 20.3735 14.7578 20.0439 14.7578 19.6045C14.7578 19.3774 14.8457 19.1797 14.9922 19.0405L16.6328 17.3779L18.7935 15.4004L17.0869 15.5029H8.18066C7.69727 15.5029 7.36768 15.1733 7.36768 14.7046C7.36768 14.2285 7.69727 13.9062 8.18066 13.9062H17.0869L18.7861 14.0088L16.6328 12.0312L14.9922 10.3687C14.8457 10.2222 14.7578 10.0244 14.7578 9.79736C14.7578 9.35791 15.0874 9.03564 15.5415 9.03564C15.7466 9.03564 15.9443 9.10889 16.1274 9.29199L20.9468 14.1113C21.1152 14.2651 21.2104 14.4849 21.2104 14.7046Z" fill="black"/>
</svg>
