<svg width="30" height="29" viewBox="0 0 30 29" fill="none" xmlns="http://www.w3.org/2000/svg">
<rect x="0.75" y="0.25" width="28.5" height="28.5" rx="1.25" fill="white"/>
<rect x="0.75" y="0.25" width="28.5" height="28.5" rx="1.25" stroke="black" stroke-width="0.5"/>
<path d="M7.86768 14.7046C7.86768 14.4849 7.96289 14.2651 8.13135 14.1113L12.9434 9.29199C13.1338 9.10889 13.3315 9.03564 13.5293 9.03564C13.9907 9.03564 14.3203 9.35791 14.3203 9.79736C14.3203 10.0244 14.2324 10.2222 14.0859 10.3687L12.4453 12.0312L10.2847 14.0088L11.9912 13.9062H20.8975C21.3735 13.9062 21.7104 14.2285 21.7104 14.7046C21.7104 15.1733 21.3735 15.5029 20.8975 15.5029H11.9912L10.2773 15.4004L12.4453 17.3779L14.0859 19.0405C14.2324 19.1797 14.3203 19.3774 14.3203 19.6045C14.3203 20.0439 13.9907 20.3735 13.5293 20.3735C13.3315 20.3735 13.1338 20.293 12.958 20.1245L8.13135 15.2979C7.96289 15.1367 7.86768 14.9243 7.86768 14.7046Z" fill="black"/>
</svg>
