<svg width="56" height="53" viewBox="0 0 56 53" fill="none" xmlns="http://www.w3.org/2000/svg">
<rect width="56" height="53" rx="1" fill="#FFFF00"/>
<rect x="13.5" y="4" width="29" height="29" rx="14.5" fill="black"/>
<path d="M24.1104 25.0039C23.3538 25.0039 22.7773 24.8079 22.3809 24.416C21.9889 24.0286 21.793 23.459 21.793 22.707V14.8936C21.793 14.1462 21.9889 13.5765 22.3809 13.1846C22.7773 12.7926 23.3538 12.5967 24.1104 12.5967H31.3086L29.791 14.1211H24.2402C23.9395 14.1211 23.7093 14.1986 23.5498 14.3535C23.3903 14.5085 23.3105 14.7432 23.3105 15.0576V22.5566C23.3105 22.8711 23.3903 23.1058 23.5498 23.2607C23.7093 23.4111 23.9395 23.4863 24.2402 23.4863H31.9033C32.1266 23.4863 32.3112 23.4111 32.457 23.2607C32.6029 23.1058 32.6758 22.8711 32.6758 22.5566V17.0674L34.2002 15.5498V22.707C34.2002 23.459 34.0088 24.0286 33.626 24.416C33.2477 24.8079 32.7145 25.0039 32.0264 25.0039H24.1104ZM26.7627 20.3418C26.6761 20.3737 26.5941 20.3532 26.5166 20.2803C26.4391 20.2074 26.4209 20.1253 26.4619 20.0342L27.0771 18.6328L33.1748 12.5352L34.2959 13.6494L28.1982 19.7471L26.7627 20.3418ZM34.7881 13.1641L33.6602 12.0361L34.2139 11.5029C34.3506 11.3662 34.5101 11.2887 34.6924 11.2705C34.8792 11.2523 35.0319 11.3047 35.1504 11.4277L35.3418 11.6328C35.4785 11.7695 35.5423 11.9313 35.5332 12.1182C35.5286 12.3005 35.458 12.4645 35.3213 12.6104L34.7881 13.1641Z" fill="#FFFF00"/>
<path d="M6.34888 39.3064H8.64038C9.97168 39.3064 10.8391 40.1646 10.8391 41.4912C10.8391 42.8132 9.95776 43.6714 8.61255 43.6714H7.31836V46H6.34888V39.3064ZM7.31836 40.1321V42.8503H8.40381C9.34546 42.8503 9.85571 42.3726 9.85571 41.4912C9.85571 40.6052 9.34546 40.1321 8.40381 40.1321H7.31836ZM16.1483 40.9438V46H15.2484V45.1233H15.1835C14.9191 45.7449 14.3485 46.0974 13.5924 46.0974C12.4931 46.0974 11.8993 45.4387 11.8993 44.2234V40.9438H12.8317V43.9961C12.8317 44.8589 13.1796 45.2671 13.9264 45.2671C14.7011 45.2671 15.2206 44.7244 15.2206 43.908V40.9438H16.1483ZM19.4444 43.7456V45.2856H20.9798V46H17.5379V45.2856H18.5399V41.6582H17.4405V40.9438H19.4398V42.2334H19.5696C19.7691 41.2825 20.3582 40.814 21.3277 40.814C21.6153 40.814 21.889 40.8511 22.056 40.9207V41.9412C21.8287 41.8577 21.4993 41.7974 21.221 41.7974C20.0799 41.7974 19.4444 42.5071 19.4444 43.7456ZM27.3606 42.572H26.4421C26.354 41.9875 25.8994 41.6396 25.2825 41.6396C24.4614 41.6396 24.0068 42.2148 24.0068 43.2539V43.6807C24.0068 44.7197 24.4614 45.2949 25.2825 45.2949C25.904 45.2949 26.3493 44.9563 26.4421 44.3857H27.3606C27.2353 45.4619 26.47 46.0974 25.2917 46.0974C23.8862 46.0974 23.0744 45.2532 23.0744 43.7781V43.1565C23.0744 41.6814 23.8862 40.8418 25.2917 40.8418C26.47 40.8418 27.2353 41.4773 27.3606 42.572ZM28.6527 46V38.9724H29.5526V41.8298H29.6222C29.882 41.2083 30.4572 40.8557 31.2225 40.8557C32.3219 40.8557 32.9203 41.519 32.9203 42.7297V46H31.9926V42.957C31.9926 42.0989 31.6354 41.686 30.8886 41.686C30.1046 41.686 29.5851 42.2288 29.5851 43.0452V46H28.6527ZM35.8128 46.0835C34.8479 46.0835 34.2078 45.4758 34.2078 44.562C34.2078 43.6621 34.8572 43.1333 36.0354 43.0637L37.3621 42.9941V42.5488C37.3621 41.969 37.0003 41.6443 36.3509 41.6443C35.8128 41.6443 35.4278 41.8762 35.3072 42.2751H34.398C34.4908 41.4402 35.284 40.8743 36.3694 40.8743C37.5894 40.8743 38.2852 41.4866 38.2852 42.5488V46.0046H37.3992V45.2671H37.3111C37.0699 45.7866 36.5271 46.0835 35.8128 46.0835ZM36.1004 45.3088C36.824 45.3088 37.3621 44.8311 37.3621 44.1863V43.6528L36.1607 43.7131C35.4881 43.7502 35.1355 44.0286 35.1355 44.5203C35.1355 45.0073 35.5066 45.3088 36.1004 45.3088ZM40.0598 42.3401C40.0598 41.4355 40.8159 40.8418 41.9755 40.8418C43.0796 40.8418 43.8032 41.3706 43.8867 42.2473H42.9961C42.9126 41.8345 42.5183 41.5793 41.9616 41.5793C41.3679 41.5793 40.9829 41.8577 40.9829 42.2751C40.9829 42.637 41.2287 42.8364 41.8178 42.9663L42.5507 43.1287C43.5481 43.3513 43.998 43.7781 43.998 44.5203C43.998 45.4805 43.2048 46.0928 41.9709 46.0928C40.7788 46.0928 40.0088 45.5593 39.9253 44.6687H40.8623C40.9643 45.1001 41.3818 45.3459 41.9941 45.3459C42.6296 45.3459 43.0378 45.063 43.0378 44.6223C43.0378 44.2512 42.8105 44.061 42.1982 43.9219L41.4421 43.7502C40.519 43.5415 40.0598 43.0776 40.0598 42.3401ZM48.8341 44.6641H49.7247C49.5902 45.5129 48.7552 46.0974 47.6652 46.0974C46.2457 46.0974 45.434 45.2625 45.434 43.8245V43.0544C45.434 41.7231 46.3014 40.8464 47.6141 40.8464C48.9362 40.8464 49.7386 41.7185 49.7386 43.1565V43.7039H46.3478V43.9312C46.3478 44.7847 46.8627 45.332 47.6605 45.332C48.2589 45.332 48.7089 45.0769 48.8341 44.6641ZM47.6049 41.6072C46.8209 41.6072 46.3478 42.1453 46.3478 43.0498H48.8248C48.8248 42.1499 48.3702 41.6072 47.6049 41.6072Z" fill="black"/>
</svg>
