<svg width="33" height="40" viewBox="0 0 33 40" fill="none" xmlns="http://www.w3.org/2000/svg">
<path d="M16.3594 39.625C16.0469 39.625 15.5781 39.5273 15.0703 39.2539C4.15234 33.1016 0.382812 30.5234 0.382812 23.5117V8.78516C0.382812 6.77344 1.26172 6.10938 2.88281 5.44531C5.16797 4.52734 12.4727 1.8125 14.7578 1.07031C15.2656 0.914062 15.8125 0.796875 16.3594 0.796875C16.9062 0.796875 17.4531 0.894531 17.9805 1.07031C20.2461 1.85156 27.5508 4.50781 29.8359 5.44531C31.4766 6.12891 32.3359 6.77344 32.3359 8.78516V23.5117C32.3359 30.5234 28.7617 33.4336 17.6484 39.2539C17.1602 39.5078 16.6719 39.625 16.3594 39.625ZM9.09375 27.457C9.09375 28.9609 9.75781 29.6641 11.1445 29.6641H21.5742C22.9609 29.6641 23.625 28.9609 23.625 27.457V19.4492C23.625 18.0234 23.0391 17.3203 21.8672 17.2422V14.8789C21.8672 11.168 19.6406 8.66797 16.3594 8.66797C13.0781 8.66797 10.8516 11.168 10.8516 14.8789V17.2422C9.67969 17.3203 9.09375 18.0234 9.09375 19.4492V27.457ZM12.9609 17.2227V14.6445C12.9609 12.2812 14.3281 10.7188 16.3594 10.7188C18.3906 10.7188 19.7578 12.2812 19.7578 14.6445V17.2227H12.9609Z" fill="black"/>
</svg>
