<svg width="31" height="42" viewBox="0 0 31 42" fill="none" xmlns="http://www.w3.org/2000/svg">
<path d="M0.980469 6.23047C0.980469 2.53906 2.81641 0.683594 6.46875 0.683594H25.4531C29.1055 0.683594 30.9219 2.53906 30.9219 6.23047V35.5664C30.9219 39.2578 29.1055 41.1133 25.4531 41.1133H6.46875C2.81641 41.1133 0.980469 39.2578 0.980469 35.5664V6.23047ZM4.125 6.26953V35.5273C4.125 37.1094 4.96484 37.9688 6.58594 37.9688H25.3359C26.9375 37.9688 27.7773 37.1094 27.7773 35.5273V6.26953C27.7773 4.66797 26.957 3.82812 25.3359 3.82812H6.58594C4.96484 3.82812 4.125 4.66797 4.125 6.26953ZM15.9609 15.8203C13.5 15.8203 11.5273 13.8477 11.5273 11.3867C11.5273 8.90625 13.5 6.95312 15.9609 6.97266C18.4023 6.99219 20.375 8.92578 20.3945 11.3867C20.4336 13.8477 18.4023 15.8203 15.9609 15.8203ZM15.9609 13.6523C17.2109 13.6523 18.2266 12.6172 18.2266 11.3867C18.2266 10.1367 17.1914 9.12109 15.9609 9.12109C14.6914 9.12109 13.6953 10.0781 13.6953 11.3867C13.6953 12.6172 14.6914 13.6523 15.9609 13.6523ZM15.9609 34.8242C11.5469 34.8242 7.99219 31.2891 7.99219 26.8555C7.99219 22.4219 11.5469 18.8672 15.9609 18.8867C20.375 18.9062 23.9297 22.4219 23.9297 26.8555C23.9297 31.2891 20.375 34.8242 15.9609 34.8242ZM15.9609 30.2344C17.8555 30.2344 19.3398 28.7305 19.3398 26.8555C19.3398 24.9219 17.8555 23.457 15.9609 23.457C14.0469 23.457 12.582 24.9219 12.582 26.8555C12.582 28.7305 14.1055 30.2344 15.9609 30.2344Z" fill="black"/>
</svg>
