<svg width="24" height="37" viewBox="0 0 24 37" fill="none" xmlns="http://www.w3.org/2000/svg">
<path d="M4.16406 36.8477C2.19141 36.8477 0.980469 35.7344 0.980469 33.6445V33.2539C0.980469 28.5469 5.98047 23.5469 8.69531 20.832C10.043 19.5039 9.94531 18.1367 8.69531 16.9062C5.98047 14.2109 0.980469 9.23047 0.980469 4.48438V4.15234C0.980469 2.0625 2.19141 0.929688 4.16406 0.929688H20.6875C22.6602 0.929688 23.8711 2.0625 23.8711 4.15234V4.48438C23.8711 9.23047 18.8906 14.2109 16.1562 16.9062C14.9258 18.1367 14.8281 19.5039 16.1562 20.832C18.8906 23.5469 23.8711 28.5469 23.8711 33.2539V33.6445C23.8711 35.7344 22.6602 36.8477 20.6875 36.8477H4.16406ZM5.66797 34.1914H19.1836C20.0234 34.1914 20.2188 33.2148 19.6523 32.6875L13.4219 26.75C13.1875 26.5352 13.1094 26.4375 13.1094 26.125V17.4727C13.1094 16.5742 13.2656 16.125 13.9297 15.5586C15.2578 14.4453 17.0938 12.8438 18.2852 11.5742C18.793 11.0664 18.5195 10.4414 17.9141 10.4414H6.9375C6.33203 10.4414 6.05859 11.0664 6.56641 11.5742C7.77734 12.8438 9.61328 14.4453 10.9219 15.5586C11.5859 16.125 11.7617 16.5742 11.7617 17.4727V26.125C11.7617 26.4375 11.6641 26.5352 11.4297 26.75L5.19922 32.6875C4.63281 33.2148 4.82812 34.1914 5.66797 34.1914Z" fill="black"/>
</svg>
