<svg width="41" height="39" viewBox="0 0 41 39" fill="none" xmlns="http://www.w3.org/2000/svg">
<path d="M4.73047 38.3945C2.21094 38.3945 0.980469 37.1445 0.980469 34.4102V20.0742C0.980469 17.3789 2.60156 16.1484 5.12109 16.1484L21.0391 16.1094V11.207C21.0391 3.84375 25.8633 0.289062 30.9805 0.289062C36.0781 0.289062 40.9023 3.84375 40.9023 11.207V15.1328C40.9023 16.3828 40.2188 16.9102 39.3594 16.9102C38.4609 16.9102 37.7578 16.3242 37.7578 15.1328V10.7969C37.7578 5.89453 34.6328 3.29688 30.9805 3.29688C27.3281 3.29688 24.1836 5.89453 24.1836 10.7969V16.1484C26.1172 16.4219 27.0742 17.6914 27.0742 20.0742V34.4102C27.0742 37.1445 25.8438 38.3945 23.3242 38.3945H4.73047Z" fill="black"/>
</svg>
