<svg width="52" height="53" viewBox="0 0 52 53" fill="none" xmlns="http://www.w3.org/2000/svg">
<rect width="52" height="53" rx="1" fill="white"/>
<rect x="12" y="4.5" width="28" height="28" rx="14" stroke="black"/>
<path d="M21.5198 24.5266C20.2524 24.5266 19.6648 23.939 19.6648 22.6716V21.1423C19.6648 20.9937 19.6294 20.8945 19.5232 20.7812L18.4399 19.6909C17.5479 18.7988 17.5408 17.9705 18.4399 17.0784L19.5232 15.988C19.6294 15.8818 19.6648 15.7756 19.6648 15.634V14.0977C19.6648 12.8232 20.2524 12.2427 21.5198 12.2427H23.0562C23.1978 12.2427 23.304 12.2073 23.4102 12.1011L24.5005 11.0178C25.3926 10.1257 26.2209 10.1187 27.113 11.0178L28.2034 12.1011C28.3167 12.2073 28.4158 12.2427 28.5645 12.2427H30.0938C31.3682 12.2427 31.9487 12.8374 31.9487 14.0977V15.634C31.9487 15.7756 31.9912 15.8818 32.0974 15.988L33.1807 17.0784C34.0728 17.9705 34.0798 18.7988 33.1807 19.6909L32.0974 20.7812C31.9912 20.8945 31.9487 20.9937 31.9487 21.1423V22.6716C31.9487 23.946 31.3611 24.5266 30.0938 24.5266H28.5645C28.4158 24.5266 28.3167 24.5691 28.2034 24.6753L27.113 25.7585C26.2209 26.6506 25.3926 26.6577 24.5005 25.7585L23.4102 24.6753C23.304 24.5691 23.1978 24.5266 23.0562 24.5266H21.5198ZM25.0173 21.8433C25.2581 21.8433 25.4634 21.73 25.6121 21.5034L28.9397 16.2571C29.0247 16.1155 29.1167 15.9526 29.1167 15.7898C29.1167 15.4641 28.8264 15.2517 28.522 15.2517C28.3308 15.2517 28.1467 15.3579 28.0122 15.5774L24.989 20.4343L23.5518 18.5793C23.3748 18.3457 23.219 18.2749 23.0208 18.2749C22.6951 18.2749 22.4473 18.5369 22.4473 18.8625C22.4473 19.0183 22.511 19.1812 22.6172 19.3228L24.3943 21.5034C24.5784 21.7512 24.7766 21.8433 25.0173 21.8433Z" fill="black"/>
<path d="M8.108 41.199C8.108 40.7937 8.20933 40.439 8.412 40.135C8.621 39.8247 8.90283 39.584 9.2575 39.413C9.61217 39.242 10.0112 39.1565 10.4545 39.1565C10.8915 39.1565 11.2873 39.242 11.642 39.413C12.003 39.5777 12.2848 39.8152 12.4875 40.1255C12.6965 40.4358 12.801 40.7937 12.801 41.199C12.801 41.598 12.6965 41.9527 12.4875 42.263C12.2848 42.567 12.003 42.8045 11.642 42.9755C11.2873 43.1402 10.8915 43.2225 10.4545 43.2225C10.0112 43.2225 9.61217 43.1402 9.2575 42.9755C8.90283 42.8045 8.621 42.567 8.412 42.263C8.20933 41.9527 8.108 41.598 8.108 41.199ZM9.286 41.199C9.286 41.4903 9.3905 41.731 9.5995 41.921C9.8085 42.111 10.0935 42.206 10.4545 42.206C10.6952 42.206 10.9042 42.1617 11.0815 42.073C11.2588 41.9843 11.3918 41.864 11.4805 41.712C11.5755 41.56 11.623 41.389 11.623 41.199C11.623 41.009 11.5755 40.838 11.4805 40.686C11.3918 40.5277 11.2588 40.4042 11.0815 40.3155C10.9042 40.2205 10.6952 40.173 10.4545 40.173C10.2138 40.173 10.0048 40.2205 9.8275 40.3155C9.65017 40.4042 9.514 40.5277 9.419 40.686C9.33033 40.838 9.286 41.009 9.286 41.199ZM15.3755 38.8525V43.346H14.188V38.8525H15.3755ZM10.806 43.84V46.4715H14.188V43.84H15.3755V47.4785H9.609V43.84H10.806ZM14.8055 44.619V45.5215H10.1695V44.619H14.8055ZM18.2818 39.5555H18.8898L18.4623 39.983C18.4623 39.6727 18.4623 39.4447 18.4623 39.299C18.4623 39.147 18.4623 38.919 18.4623 38.615H19.6498C19.6498 38.8303 19.6498 38.9918 19.6498 39.0995C19.6498 39.2072 19.6498 39.318 19.6498 39.432C19.6498 39.5397 19.6498 39.7012 19.6498 39.9165L19.2223 39.5555H19.8398H21.3503V40.5245H16.5718V39.5555H18.2818ZM16.3533 42.6525C17.0499 42.3992 17.5756 42.0888 17.9303 41.7215C18.2849 41.3542 18.4623 40.8918 18.4623 40.3345V40.0495H19.6593V40.401C19.6593 40.7113 19.7416 40.9963 19.9063 41.256C20.0709 41.5093 20.2989 41.7247 20.5903 41.902C20.9006 42.0857 21.2489 42.2155 21.6353 42.2915L21.2743 43.2795C21.0526 43.2288 20.8436 43.1687 20.6473 43.099C20.4573 43.0293 20.2768 42.9438 20.1058 42.8425C19.6878 42.6082 19.3584 42.3042 19.1178 41.9305C18.8834 41.5505 18.7473 41.0945 18.7093 40.5625H19.4313C19.3553 41.1198 19.2128 41.5917 19.0038 41.978C18.7948 42.358 18.5161 42.6778 18.1678 42.9375C17.8258 43.1908 17.3983 43.4125 16.8853 43.6025L16.3533 42.6525ZM23.4118 38.8525V43.156H22.2243V42.0635V38.8525H23.4118ZM24.5518 40.7715V41.769H22.6518V40.7715H24.5518ZM23.4118 43.7165V46.0345H19.0608V46.557H21.6543C22.1166 46.557 22.4586 46.557 22.6803 46.557C22.9019 46.557 23.2376 46.557 23.6873 46.557V47.507C23.2249 47.507 22.8829 47.507 22.6613 47.507C22.4396 47.507 22.1039 47.507 21.6543 47.507H17.8733V45.1605H22.2243V44.6475H17.8923V43.7165H23.4118ZM28.6975 39.736H29.353L28.9065 40.1635C28.9065 39.9292 28.9065 39.755 28.9065 39.641C28.9065 39.5207 28.9065 39.4035 28.9065 39.2895C28.9065 39.1692 28.9065 38.9918 28.9065 38.7575H30.132C30.132 38.9918 30.132 39.1692 30.132 39.2895C30.132 39.4035 30.132 39.5207 30.132 39.641C30.132 39.755 30.132 39.9292 30.132 40.1635L29.6855 39.736H30.227H31.8895V40.686H27.0065V39.736H28.6975ZM27.4435 42.757C27.4435 42.4087 27.5321 42.1047 27.7095 41.845C27.8868 41.579 28.1306 41.3732 28.441 41.2275C28.7576 41.0818 29.1123 41.009 29.505 41.009C29.904 41.009 30.2586 41.0818 30.569 41.2275C30.8856 41.3668 31.1295 41.5695 31.3005 41.8355C31.4778 42.1015 31.5665 42.4087 31.5665 42.757C31.5665 43.1117 31.4778 43.4188 31.3005 43.6785C31.1295 43.9382 30.8856 44.1408 30.569 44.2865C30.2586 44.4258 29.904 44.4955 29.505 44.4955C29.1123 44.4955 28.7576 44.4258 28.441 44.2865C28.1306 44.1408 27.8868 43.9382 27.7095 43.6785C27.5321 43.4125 27.4435 43.1053 27.4435 42.757ZM28.631 42.757C28.631 42.9913 28.707 43.1845 28.859 43.3365C29.0173 43.4822 29.2326 43.555 29.505 43.555C29.7836 43.555 29.999 43.4822 30.151 43.3365C30.303 43.1845 30.379 42.9913 30.379 42.757C30.379 42.529 30.2998 42.339 30.1415 42.187C29.9895 42.0287 29.7773 41.9495 29.505 41.9495C29.2326 41.9495 29.0173 42.0287 28.859 42.187C28.707 42.339 28.631 42.529 28.631 42.757ZM33.9225 40.933V41.9495H31.975V40.933H33.9225ZM33.9225 42.985V44.0205H31.975V42.985H33.9225ZM34.3405 38.843V45.3695L33.153 45.36V38.843H34.3405ZM29.7615 44.98V46.842L29.4385 46.481H34.5685V47.4785H28.574V44.98H29.7615ZM37.5792 39.318H38.2537L37.8262 39.7455C37.8262 39.4732 37.8262 39.2737 37.8262 39.147C37.8262 39.014 37.8262 38.8177 37.8262 38.558H39.0137C39.0137 38.7543 39.0137 38.9032 39.0137 39.0045C39.0137 39.0995 39.0137 39.1977 39.0137 39.299C39.0137 39.4003 39.0137 39.5492 39.0137 39.7455L38.5862 39.318H39.3367H40.8282V40.23H35.7552V39.318H37.5792ZM36.3157 41.864C36.3157 41.4397 36.4994 41.1072 36.8667 40.8665C37.2341 40.6258 37.7502 40.5087 38.4152 40.515C39.0802 40.5213 39.5932 40.6448 39.9542 40.8855C40.3216 41.1198 40.5052 41.446 40.5052 41.864C40.5052 42.2757 40.3216 42.6018 39.9542 42.8425C39.5932 43.0768 39.0802 43.1908 38.4152 43.1845C37.7502 43.1782 37.2341 43.061 36.8667 42.833C36.4994 42.5987 36.3157 42.2757 36.3157 41.864ZM37.4557 41.864C37.4557 42.016 37.5412 42.13 37.7122 42.206C37.8896 42.282 38.1239 42.32 38.4152 42.32C38.7066 42.32 38.9377 42.282 39.1087 42.206C39.2797 42.13 39.3652 42.016 39.3652 41.864C39.3652 41.6993 39.2797 41.5822 39.1087 41.5125C38.9441 41.4428 38.7129 41.408 38.4152 41.408C38.1049 41.408 37.8674 41.4428 37.7027 41.5125C37.5381 41.5758 37.4557 41.693 37.4557 41.864ZM38.9377 42.738V44.068L37.8927 44.0585V42.738H38.9377ZM37.0662 43.5265C38.1936 43.5265 39.1182 43.498 39.8402 43.441C40.5686 43.384 41.2241 43.289 41.8067 43.156L42.0252 43.8495C41.4489 44.0522 40.7491 44.2073 39.9257 44.315C39.1087 44.4163 38.2126 44.467 37.2372 44.467H35.7077L35.6507 43.5265H37.0662ZM42.6522 38.8525V44.486H41.4647V38.8525H42.6522ZM43.7922 41.199V42.1965H42.1487V41.199H43.7922ZM36.8762 46.1485C36.8762 45.6608 37.1264 45.3062 37.6267 45.0845C38.1334 44.8565 38.8649 44.7425 39.8212 44.7425C40.7776 44.7425 41.5059 44.8565 42.0062 45.0845C42.5066 45.3062 42.7567 45.6608 42.7567 46.1485C42.7567 46.6362 42.5034 46.994 41.9967 47.222C41.4964 47.4563 40.7712 47.5735 39.8212 47.5735C38.8712 47.5735 38.1429 47.4563 37.6362 47.222C37.1296 46.994 36.8762 46.6362 36.8762 46.1485ZM38.0162 46.1485C38.0162 46.3005 38.1524 46.4145 38.4247 46.4905C38.7034 46.5665 39.1689 46.6045 39.8212 46.6045C40.4799 46.6045 40.9422 46.5697 41.2082 46.5C41.4806 46.424 41.6167 46.3068 41.6167 46.1485C41.6167 45.9838 41.4806 45.8635 41.2082 45.7875C40.9422 45.7115 40.4799 45.6735 39.8212 45.6735C39.1626 45.6735 38.6971 45.7115 38.4247 45.7875C38.1524 45.8635 38.0162 45.9838 38.0162 46.1485Z" fill="black"/>
</svg>
