<svg width="64" height="53" viewBox="0 0 64 53" fill="none" xmlns="http://www.w3.org/2000/svg">
<rect x="0.25" y="0.25" width="63.5" height="52.5" rx="0.75" fill="white"/>
<rect x="0.25" y="0.25" width="63.5" height="52.5" rx="0.75" stroke="black" stroke-width="0.5"/>
<rect x="18" y="4.5" width="28" height="28" rx="14" stroke="black"/>
<path d="M27.5198 24.5266C26.2524 24.5266 25.6648 23.939 25.6648 22.6716V21.1423C25.6648 20.9937 25.6294 20.8945 25.5232 20.7812L24.4399 19.6909C23.5479 18.7988 23.5408 17.9705 24.4399 17.0784L25.5232 15.988C25.6294 15.8818 25.6648 15.7756 25.6648 15.634V14.0977C25.6648 12.8232 26.2524 12.2427 27.5198 12.2427H29.0562C29.1978 12.2427 29.304 12.2073 29.4102 12.1011L30.5005 11.0178C31.3926 10.1257 32.2209 10.1187 33.113 11.0178L34.2034 12.1011C34.3167 12.2073 34.4158 12.2427 34.5645 12.2427H36.0938C37.3682 12.2427 37.9487 12.8374 37.9487 14.0977V15.634C37.9487 15.7756 37.9912 15.8818 38.0974 15.988L39.1807 17.0784C40.0728 17.9705 40.0798 18.7988 39.1807 19.6909L38.0974 20.7812C37.9912 20.8945 37.9487 20.9937 37.9487 21.1423V22.6716C37.9487 23.946 37.3611 24.5266 36.0938 24.5266H34.5645C34.4158 24.5266 34.3167 24.5691 34.2034 24.6753L33.113 25.7585C32.2209 26.6506 31.3926 26.6577 30.5005 25.7585L29.4102 24.6753C29.304 24.5691 29.1978 24.5266 29.0562 24.5266H27.5198ZM31.0173 21.8433C31.2581 21.8433 31.4634 21.73 31.6121 21.5034L34.9397 16.2571C35.0247 16.1155 35.1167 15.9526 35.1167 15.7898C35.1167 15.4641 34.8264 15.2517 34.522 15.2517C34.3308 15.2517 34.1467 15.3579 34.0122 15.5774L30.989 20.4343L29.5518 18.5793C29.3748 18.3457 29.219 18.2749 29.0208 18.2749C28.6951 18.2749 28.4473 18.5369 28.4473 18.8625C28.4473 19.0183 28.511 19.1812 28.6172 19.3228L30.3943 21.5034C30.5784 21.7512 30.7766 21.8433 31.0173 21.8433Z" fill="black"/>
<path d="M4.665 42.4435C4.665 41.7848 4.779 41.2338 5.007 40.7905C5.235 40.3408 5.53583 40.0083 5.9095 39.793C6.2895 39.5777 6.7075 39.47 7.1635 39.47C7.61317 39.47 8.02483 39.5777 8.3985 39.793C8.77217 40.0083 9.06983 40.3408 9.2915 40.7905C9.5195 41.2338 9.6335 41.7848 9.6335 42.4435C9.6335 43.1022 9.5195 43.6563 9.2915 44.106C9.06983 44.5493 8.77217 44.8787 8.3985 45.094C8.02483 45.3093 7.61317 45.417 7.1635 45.417C6.7075 45.417 6.2895 45.3093 5.9095 45.094C5.53583 44.8787 5.235 44.5493 5.007 44.106C4.779 43.6563 4.665 43.1022 4.665 42.4435ZM5.8525 42.4435C5.8525 42.8615 5.9095 43.2162 6.0235 43.5075C6.1375 43.7925 6.29267 44.0078 6.489 44.1535C6.68533 44.2992 6.91017 44.372 7.1635 44.372C7.4105 44.372 7.629 44.2992 7.819 44.1535C8.01533 44.0078 8.16733 43.7925 8.275 43.5075C8.389 43.2162 8.446 42.8615 8.446 42.4435C8.446 42.0192 8.389 41.6645 8.275 41.3795C8.16733 41.0882 8.01533 40.8728 7.819 40.7335C7.629 40.5878 7.4105 40.515 7.1635 40.515C6.91017 40.515 6.68533 40.5878 6.489 40.7335C6.29267 40.8728 6.1375 41.0882 6.0235 41.3795C5.9095 41.6708 5.8525 42.0255 5.8525 42.4435ZM12.0085 38.8525V47.3455H10.821V38.8525H12.0085ZM17.9928 39.4985V40.496H13.4233V39.4985H17.9928ZM13.1098 43.365C13.5658 43.1687 13.9489 42.9312 14.2593 42.6525C14.5696 42.3738 14.8008 42.0635 14.9528 41.7215C15.1111 41.3732 15.1903 40.9995 15.1903 40.6005V39.812H16.3778V40.5815C16.3778 40.9425 16.4506 41.2813 16.5963 41.598C16.7419 41.9147 16.9478 42.1902 17.2138 42.4245C17.3721 42.5638 17.5526 42.6905 17.7553 42.8045C17.9579 42.9185 18.1796 43.0167 18.4203 43.099L17.9453 44.0585C17.7363 44.0015 17.5273 43.9192 17.3183 43.8115C17.1093 43.7038 16.9098 43.5708 16.7198 43.4125C16.3271 43.0895 16.0073 42.6842 15.7603 42.1965C15.5133 41.7088 15.3771 41.1515 15.3518 40.5245H16.2163C16.2353 41.4112 16.0136 42.1775 15.5513 42.8235C15.0889 43.4695 14.4746 43.9635 13.7083 44.3055L13.1098 43.365ZM19.9118 41.18V42.1775H17.7458V41.18H19.9118ZM20.4248 38.8525V44.9325H19.2373V38.8525H20.4248ZM16.0358 44.676V47.203L15.3708 46.4335H20.6623V47.4405H14.8483V44.676H16.0358ZM23.706 41.199C23.706 40.7937 23.8073 40.439 24.01 40.135C24.219 39.8247 24.5008 39.584 24.8555 39.413C25.2101 39.242 25.6091 39.1565 26.0525 39.1565C26.4895 39.1565 26.8853 39.242 27.24 39.413C27.601 39.5777 27.8828 39.8152 28.0855 40.1255C28.2945 40.4358 28.399 40.7937 28.399 41.199C28.399 41.598 28.2945 41.9527 28.0855 42.263C27.8828 42.567 27.601 42.8045 27.24 42.9755C26.8853 43.1402 26.4895 43.2225 26.0525 43.2225C25.6091 43.2225 25.2101 43.1402 24.8555 42.9755C24.5008 42.8045 24.219 42.567 24.01 42.263C23.8073 41.9527 23.706 41.598 23.706 41.199ZM24.884 41.199C24.884 41.4903 24.9885 41.731 25.1975 41.921C25.4065 42.111 25.6915 42.206 26.0525 42.206C26.2931 42.206 26.5021 42.1617 26.6795 42.073C26.8568 41.9843 26.9898 41.864 27.0785 41.712C27.1735 41.56 27.221 41.389 27.221 41.199C27.221 41.009 27.1735 40.838 27.0785 40.686C26.9898 40.5277 26.8568 40.4042 26.6795 40.3155C26.5021 40.2205 26.2931 40.173 26.0525 40.173C25.8118 40.173 25.6028 40.2205 25.4255 40.3155C25.2481 40.4042 25.112 40.5277 25.017 40.686C24.9283 40.838 24.884 41.009 24.884 41.199ZM30.9735 38.8525V43.346H29.786V38.8525H30.9735ZM26.404 43.84V46.4715H29.786V43.84H30.9735V47.4785H25.207V43.84H26.404ZM30.4035 44.619V45.5215H25.7675V44.619H30.4035ZM33.8797 39.5555H34.4877L34.0602 39.983C34.0602 39.6727 34.0602 39.4447 34.0602 39.299C34.0602 39.147 34.0602 38.919 34.0602 38.615H35.2477C35.2477 38.8303 35.2477 38.9918 35.2477 39.0995C35.2477 39.2072 35.2477 39.318 35.2477 39.432C35.2477 39.5397 35.2477 39.7012 35.2477 39.9165L34.8202 39.5555H35.4377H36.9482V40.5245H32.1697V39.5555H33.8797ZM31.9512 42.6525C32.6479 42.3992 33.1736 42.0888 33.5282 41.7215C33.8829 41.3542 34.0602 40.8918 34.0602 40.3345V40.0495H35.2572V40.401C35.2572 40.7113 35.3396 40.9963 35.5042 41.256C35.6689 41.5093 35.8969 41.7247 36.1882 41.902C36.4986 42.0857 36.8469 42.2155 37.2332 42.2915L36.8722 43.2795C36.6506 43.2288 36.4416 43.1687 36.2452 43.099C36.0552 43.0293 35.8747 42.9438 35.7037 42.8425C35.2857 42.6082 34.9564 42.3042 34.7157 41.9305C34.4814 41.5505 34.3452 41.0945 34.3072 40.5625H35.0292C34.9532 41.1198 34.8107 41.5917 34.6017 41.978C34.3927 42.358 34.1141 42.6778 33.7657 42.9375C33.4237 43.1908 32.9962 43.4125 32.4832 43.6025L31.9512 42.6525ZM39.0097 38.8525V43.156H37.8222V42.0635V38.8525H39.0097ZM40.1497 40.7715V41.769H38.2497V40.7715H40.1497ZM39.0097 43.7165V46.0345H34.6587V46.557H37.2522C37.7146 46.557 38.0566 46.557 38.2782 46.557C38.4999 46.557 38.8356 46.557 39.2852 46.557V47.507C38.8229 47.507 38.4809 47.507 38.2592 47.507C38.0376 47.507 37.7019 47.507 37.2522 47.507H33.4712V45.1605H37.8222V44.6475H33.4902V43.7165H39.0097ZM44.2954 39.736H44.9509L44.5044 40.1635C44.5044 39.9292 44.5044 39.755 44.5044 39.641C44.5044 39.5207 44.5044 39.4035 44.5044 39.2895C44.5044 39.1692 44.5044 38.9918 44.5044 38.7575H45.7299C45.7299 38.9918 45.7299 39.1692 45.7299 39.2895C45.7299 39.4035 45.7299 39.5207 45.7299 39.641C45.7299 39.755 45.7299 39.9292 45.7299 40.1635L45.2834 39.736H45.8249H47.4874V40.686H42.6044V39.736H44.2954ZM43.0414 42.757C43.0414 42.4087 43.1301 42.1047 43.3074 41.845C43.4848 41.579 43.7286 41.3732 44.0389 41.2275C44.3556 41.0818 44.7103 41.009 45.1029 41.009C45.5019 41.009 45.8566 41.0818 46.1669 41.2275C46.4836 41.3668 46.7274 41.5695 46.8984 41.8355C47.0758 42.1015 47.1644 42.4087 47.1644 42.757C47.1644 43.1117 47.0758 43.4188 46.8984 43.6785C46.7274 43.9382 46.4836 44.1408 46.1669 44.2865C45.8566 44.4258 45.5019 44.4955 45.1029 44.4955C44.7103 44.4955 44.3556 44.4258 44.0389 44.2865C43.7286 44.1408 43.4848 43.9382 43.3074 43.6785C43.1301 43.4125 43.0414 43.1053 43.0414 42.757ZM44.2289 42.757C44.2289 42.9913 44.3049 43.1845 44.4569 43.3365C44.6153 43.4822 44.8306 43.555 45.1029 43.555C45.3816 43.555 45.5969 43.4822 45.7489 43.3365C45.9009 43.1845 45.9769 42.9913 45.9769 42.757C45.9769 42.529 45.8978 42.339 45.7394 42.187C45.5874 42.0287 45.3753 41.9495 45.1029 41.9495C44.8306 41.9495 44.6153 42.0287 44.4569 42.187C44.3049 42.339 44.2289 42.529 44.2289 42.757ZM49.5204 40.933V41.9495H47.5729V40.933H49.5204ZM49.5204 42.985V44.0205H47.5729V42.985H49.5204ZM49.9384 38.843V45.3695L48.7509 45.36V38.843H49.9384ZM45.3594 44.98V46.842L45.0364 46.481H50.1664V47.4785H44.1719V44.98H45.3594ZM53.1772 39.318H53.8517L53.4242 39.7455C53.4242 39.4732 53.4242 39.2737 53.4242 39.147C53.4242 39.014 53.4242 38.8177 53.4242 38.558H54.6117C54.6117 38.7543 54.6117 38.9032 54.6117 39.0045C54.6117 39.0995 54.6117 39.1977 54.6117 39.299C54.6117 39.4003 54.6117 39.5492 54.6117 39.7455L54.1842 39.318H54.9347H56.4262V40.23H51.3532V39.318H53.1772ZM51.9137 41.864C51.9137 41.4397 52.0974 41.1072 52.4647 40.8665C52.832 40.6258 53.3482 40.5087 54.0132 40.515C54.6782 40.5213 55.1912 40.6448 55.5522 40.8855C55.9195 41.1198 56.1032 41.446 56.1032 41.864C56.1032 42.2757 55.9195 42.6018 55.5522 42.8425C55.1912 43.0768 54.6782 43.1908 54.0132 43.1845C53.3482 43.1782 52.832 43.061 52.4647 42.833C52.0974 42.5987 51.9137 42.2757 51.9137 41.864ZM53.0537 41.864C53.0537 42.016 53.1392 42.13 53.3102 42.206C53.4875 42.282 53.7219 42.32 54.0132 42.32C54.3045 42.32 54.5357 42.282 54.7067 42.206C54.8777 42.13 54.9632 42.016 54.9632 41.864C54.9632 41.6993 54.8777 41.5822 54.7067 41.5125C54.542 41.4428 54.3109 41.408 54.0132 41.408C53.7029 41.408 53.4654 41.4428 53.3007 41.5125C53.136 41.5758 53.0537 41.693 53.0537 41.864ZM54.5357 42.738V44.068L53.4907 44.0585V42.738H54.5357ZM52.6642 43.5265C53.7915 43.5265 54.7162 43.498 55.4382 43.441C56.1665 43.384 56.822 43.289 57.4047 43.156L57.6232 43.8495C57.0469 44.0522 56.347 44.2073 55.5237 44.315C54.7067 44.4163 53.8105 44.467 52.8352 44.467H51.3057L51.2487 43.5265H52.6642ZM58.2502 38.8525V44.486H57.0627V38.8525H58.2502ZM59.3902 41.199V42.1965H57.7467V41.199H59.3902ZM52.4742 46.1485C52.4742 45.6608 52.7244 45.3062 53.2247 45.0845C53.7314 44.8565 54.4629 44.7425 55.4192 44.7425C56.3755 44.7425 57.1039 44.8565 57.6042 45.0845C58.1045 45.3062 58.3547 45.6608 58.3547 46.1485C58.3547 46.6362 58.1014 46.994 57.5947 47.222C57.0944 47.4563 56.3692 47.5735 55.4192 47.5735C54.4692 47.5735 53.7409 47.4563 53.2342 47.222C52.7275 46.994 52.4742 46.6362 52.4742 46.1485ZM53.6142 46.1485C53.6142 46.3005 53.7504 46.4145 54.0227 46.4905C54.3014 46.5665 54.7669 46.6045 55.4192 46.6045C56.0779 46.6045 56.5402 46.5697 56.8062 46.5C57.0785 46.424 57.2147 46.3068 57.2147 46.1485C57.2147 45.9838 57.0785 45.8635 56.8062 45.7875C56.5402 45.7115 56.0779 45.6735 55.4192 45.6735C54.7605 45.6735 54.295 45.7115 54.0227 45.7875C53.7504 45.8635 53.6142 45.9838 53.6142 46.1485Z" fill="black"/>
</svg>
